<?xml version="1.0" encoding="UTF-8"?>
<svg id="_Слой_2" data-name="Слой 2" xmlns="http://www.w3.org/2000/svg" viewBox="0 0 591.32 139.34">
  <defs>
    <style>
      .cls-1 {
        fill: #fff;
      }

      .cls-2 {
        fill: #efbf54;
      }

      .cls-3 {
        fill: #2d2d2d;
      }
    </style>
  </defs>
  <g>
    <path class="cls-2" d="M12.35,59.51v45.17c0,4.33,3.51,7.84,7.84,7.84h66.31c4.33,0,7.84-3.51,7.84-7.84v-45.17c0-2.52-1.22-4.89-3.27-6.37l-33.15-23.8c-2.73-1.96-6.41-1.96-9.14,0L15.61,53.14c-2.05,1.47-3.27,3.84-3.27,6.37Z"/>
    <g id="WHshxM.tif">
      <g>
        <path class="cls-1" d="M78.2,86.08c0,7.49-6.15,13.63-13.65,13.63-7.46,0-13.61-6.13-13.64-13.6-.03-7.5,6.17-13.7,13.65-13.68,7.52.03,13.64,6.15,13.63,13.65Z"/>
        <path class="cls-1" d="M46.25,70.16c-3.71-.04-7.47-.57-11.03-2.11-1.24-.54-2.41-1.22-3.41-2.15-1.76-1.64-1.76-3.46,0-5.1,1.32-1.23,2.9-2.02,4.57-2.62,4.1-1.48,8.34-1.85,12.66-1.53,2.93.22,5.77.81,8.48,1.99,1.26.55,2.44,1.23,3.44,2.18,1.74,1.64,1.74,3.44,0,5.07-1.32,1.23-2.9,2.02-4.57,2.63-3.23,1.19-6.59,1.62-10.15,1.65Z"/>
        <path class="cls-1" d="M30.47,70.67c6.25,3.74,13,4.39,20.02,3.84-.07.11-.12.22-.19.31-.99,1.25-1.8,2.6-2.42,4.06-.09.21-.17.35-.46.36-3.8.08-7.53-.34-11.12-1.67-1.58-.58-3.07-1.33-4.35-2.46-1-.9-1.61-1.96-1.49-3.35.03-.35,0-.7,0-1.09Z"/>
        <path class="cls-1" d="M30.47,88.89c1.03.52,2,1.07,3.01,1.52,2.55,1.15,5.24,1.84,8.01,2.13,1.94.2,3.9.21,5.85.33.16,0,.4.12.46.25.61,1.4,1.37,2.71,2.29,3.93.02.03.03.08.07.21-1.21.05-2.38.14-3.55.15-3.47.04-6.87-.42-10.15-1.6-1.63-.59-3.17-1.34-4.48-2.5-1.02-.9-1.63-1.97-1.52-3.38.03-.35,0-.7,0-1.04Z"/>
        <path class="cls-1" d="M30.47,79.73c4.96,3.08,10.37,3.98,15.98,4.08v4.47c-.69,0-1.4.04-2.11,0-3.15-.19-6.21-.77-9.12-2.04-1.4-.61-2.71-1.37-3.76-2.52-.69-.76-1.06-1.63-1-2.67.02-.42,0-.84,0-1.31Z"/>
      </g>
    </g>
  </g>
  <g>
    <path class="cls-3" d="M159.46,44.9c-.09.98-.09,1.96,0,2.85,8.27.71,8.63.8,8.63,8.27v16.37h-32.03v-17.53c0-6.23.44-6.41,8.72-7.12.18-.98.18-1.96,0-2.85-3.29,0-10.41.18-13.52.18-3.29,0-10.23-.18-13.79-.18-.18.98-.18,1.96,0,2.85,8.36.71,8.81.8,8.81,8.27v41.37c0,6.32-.53,6.41-8.72,7.12-.18.98-.18,1.96,0,2.85,3.56,0,10.23-.18,13.52-.18s10.14.18,13.7.18c.09-.89.09-1.87,0-2.85-8.36-.71-8.72-.8-8.72-8.27v-19.93h32.03v21.09c0,6.32-.36,6.41-8.54,7.12-.18.98-.18,1.96,0,2.85,3.56,0,10.05-.18,13.34-.18s10.05.18,13.79.18c.09-.89.09-1.87,0-2.85-8.54-.71-8.81-.89-8.81-8.27v-41.37c0-6.23.44-6.41,8.81-7.12.09-.98.09-1.96,0-2.85-3.65,0-10.14.18-13.61.18-3.29,0-10.23-.18-13.61-.18Z"/>
    <path class="cls-3" d="M215.26,63.49c-13.26,0-22.33,9.16-22.33,22.95,0,12.9,8.45,21.89,21.53,21.89s22.24-9.79,22.24-22.86-8.54-21.97-21.44-21.97ZM214.91,105.04c-7.92,0-11.92-7.56-11.92-19.66s4.18-18.5,11.84-18.5,11.83,7.65,11.83,19.66c0,11.3-4.18,18.5-11.75,18.5Z"/>
    <path class="cls-3" d="M311.98,97.12v-20.19c0-8.63-4-13.43-11.83-13.43-5.43,0-10.85,2.22-15.93,7.12-1.24-4.09-4.36-7.12-10.85-7.12-5.16,0-10.14,2.14-15.03,6.67v-6.58l-1.51-.53c-4.54,1.87-9.07,3.11-14.06,4.09-.18.71-.18,1.51,0,2.31,6.58.89,6.67,1.69,6.67,8.63v19.93c0,5.87-.71,6.23-6.76,6.58-.18.89-.18,1.87,0,2.76,3.56,0,6.76-.18,11.03-.18,4.54,0,7.74.18,11.12.18.09-.89.09-1.87,0-2.76-5.78-.36-6.4-.53-6.4-7.47l-.09-23.04c2.85-3.11,6.32-4.63,9.87-4.63,6.49,0,7.92,3.56,7.92,10.59v17.97c0,5.87-.98,6.23-6.05,6.58-.18.89-.18,1.87,0,2.76,2.94,0,6.05-.18,10.41-.18s7.56.18,10.85.18c.09-.89.09-1.87,0-2.76-5.6-.36-6.23-.53-6.23-7.47v-20.19c0-.98-.09-2.05-.18-3.02,2.76-2.94,6.23-4.45,10.14-4.45,6.4,0,7.92,3.65,7.92,10.59v17.97c0,5.87-.98,6.23-6.32,6.58-.18.89-.18,1.87,0,2.76,2.94,0,6.14-.18,10.68-.18s7.47.18,10.76.18c.18-.89.18-1.87,0-2.76-5.6-.36-6.14-.53-6.14-7.47Z"/>
    <path class="cls-3" d="M347.41,101.92c-11.48,0-15.21-9.34-15.21-19.3l28.02.27c.09-.53.18-1.51.18-2.67,0-9.87-6.23-16.73-16.64-16.73-13.08,0-20.28,10.94-20.28,23.13s6.94,21.71,19.57,21.71c6.67,0,12.55-2.76,17.61-8.27-.35-.8-.8-1.42-1.33-2.05-4,2.67-7.83,3.91-11.92,3.91ZM342.69,66.87c5.43,0,8.27,4.8,8.27,11.21,0,.09,0,.62-.09.89l-18.41.36c.98-8.27,5.16-12.46,10.23-12.46Z"/>
    <path class="cls-2" d="M400.44,44.01c-19.31,0-31.76,13.79-31.76,32.83s11.47,31.76,30.69,31.76,31.76-13.61,31.76-32.83-11.74-31.76-30.69-31.76ZM400.35,105.04c-15.03,0-20.55-15.03-20.55-28.82s5.43-28.56,20.28-28.56,20.02,14.59,20.02,29-5.16,28.38-19.75,28.38Z"/>
    <path class="cls-2" d="M476.16,47.03c0-5.07-6.22-6.94-11.3-6.94s-10.14,1.78-13.79,5.25c-5.42,5.25-6.05,12.9-6.23,16.64-.08,1.5-.29,2.42-1,3.08h-6.61v4.3h7.52v28.66c0,5.87-.62,6.23-6.76,6.58-.09.98-.09,1.87,0,2.76,3.74,0,6.49-.18,11.3-.18s8.9.18,12.9.18c.09-.98.09-1.96,0-2.76-7.65-.36-8.36-.53-8.36-7.47v-27.85h11.12c.18-1.42.18-2.76,0-4.09h-11.12v-5.16c0-11.56,2.49-16.01,8.09-16.01,1.16,0,2.05.18,2.85.44,0,3.38,2.58,7.21,6.67,7.21,3.03,0,4.71-1.87,4.71-4.63Z"/>
    <path class="cls-2" d="M494.8,44.01c1.15,0,2.04.18,2.85.44,0,3.38,2.58,7.21,6.67,7.21,3.03,0,4.72-1.87,4.72-4.63,0-5.07-6.23-6.94-11.3-6.94s-10.14,1.78-13.79,5.25c-5.43,5.25-6.05,12.9-6.22,16.64-.08,1.5-.29,2.42-1,3.08h-6.61v4.3h7.52v28.66c0,5.87-.62,6.23-6.76,6.58-.09.98-.09,1.87,0,2.76,3.74,0,6.49-.18,11.3-.18s8.9.18,12.9.18c.09-.98.09-1.96,0-2.76-7.65-.36-8.36-.53-8.36-7.47v-27.85h11.12c.18-1.42.18-2.76,0-4.09h-11.12v-5.16c0-11.56,2.49-16.01,8.1-16.01Z"/>
    <path class="cls-2" d="M525.23,101.92c-11.48,0-15.21-9.34-15.21-19.3l28.02.27c.09-.53.18-1.51.18-2.67,0-9.87-6.23-16.73-16.64-16.73-13.08,0-20.28,10.94-20.28,23.13s6.94,21.71,19.57,21.71c6.67,0,12.55-2.76,17.62-8.27-.35-.8-.8-1.42-1.33-2.05-4,2.67-7.83,3.91-11.92,3.91ZM520.51,66.87c5.43,0,8.27,4.8,8.27,11.21,0,.09,0,.62-.09.89l-18.41.36c.98-8.27,5.16-12.46,10.23-12.46Z"/>
    <path class="cls-2" d="M572.84,63.49c-4.27,0-8.63,2.67-12.72,7.92v-7.83l-1.51-.53c-4.98,2.05-9.34,3.2-14.06,4.09-.18.71-.18,1.51,0,2.31,6.58.89,6.67,1.69,6.67,8.63v19.93c0,5.87-.71,6.23-6.76,6.58-.18.89-.18,1.87,0,2.76,3.65,0,6.67-.18,11.12-.18s8.72.18,12.81.18c.09-.98.09-1.96,0-2.76-7.83-.36-8.18-.53-8.18-7.47v-19.13c0-4.18,3.65-7.83,7.74-7.83,1.07,2.49,3.47,3.65,5.78,3.65,2.76,0,5.25-1.78,5.25-4.98,0-2.76-2.05-5.34-6.14-5.34Z"/>
  </g>
</svg>